:SAMPLES-PER-SECOND 30
:FULLY-SPECIFIED
:DEGREES
771
root  -28.672 35.8488 2.97396 -156.848 -78.8093 -176.232
RightUpLeg  -72.7228 -19.9253 26.7693
RightLeg  29.0507 -0.53122 -0.447501
RightFoot  1.20149 0.25167 -1.77544
RightToes  2.91037e-010 0 -3.6325e-017
Spine  73.1247 -5.5206 7.01479
Spine1  9.96128 3.13715 -11.6538
HEad  -44.792 -1.95594 0.194763
LeftShoulder1  0.738477 -25.7497 6.7657
LeftArm  -67.4904 -62.9004 32.9198
LeftForeArm  47.9037 -5.01649 -2.39547
LeftHand  -0.244104 0.0205437 5.32207
RightShoulder  0.0714138 13.8104 -9.13949
RightArm  -63.0735 58.7681 -22.4779
RightForeArm  22.2847 2.61816 0.520808
RightHand  -6.09013 16.4914 -31.8024
LeftUpLeg  -57.4419 17.0496 -16.181
LeftLeg  56.7585 8.28418 13.8504
LeftFoot  -23.8433 0.189575 0.434594
LeftToes  -1.10052e-010 1.3781e-010 -2.1811e-011
772
root  -29.9607 35.7533 2.57869 -150.649 -78.4629 177.661
RightUpLeg  -73.0215 -18.8855 26.8556
RightLeg  29.0948 3.32191 1.76221
RightFoot  5.93021 1.57381 -10.2638
RightToes  2.91037e-010 0 -3.6325e-017
Spine  72.6118 -6.22901 6.25418
Spine1  12.3142 2.41695 -13.3307
HEad  -45.6985 -0.749787 0.321308
LeftShoulder1  0.134071 -24.3637 9.0498
LeftArm  -66.8668 -60.6815 33.6515
LeftForeArm  45.4223 -6.41783 -2.32004
LeftHand  -0.244104 0.0205437 5.32207
RightShoulder  -0.173356 12.5675 -10.8593
RightArm  -66.2536 59.3165 -22.9064
RightForeArm  21.7943 3.69198 -0.0350052
RightHand  -6.29637 16.8787 -32.2752
LeftUpLeg  -55.3555 17.0032 -16.1834
LeftLeg  57.771 7.96752 13.8816
LeftFoot  -25.1982 -0.120587 -2.21065
LeftToes  -1.10052e-010 1.3781e-010 -2.1811e-011
773
root  -31.2048 35.6652 2.24204 -148.262 -78.2672 175.236
RightUpLeg  -72.9335 -16.6173 22.1676
RightLeg  34.6735 1.20406 0.599842
RightFoot  5.18967 2.12441 -14.2767
RightToes  2.91037e-010 0 -3.6325e-017
Spine  71.3048 -6.90628 5.84589
Spine1  15.7644 1.8447 -14.1067
HEad  -47.7057 0.700312 -0.607875
LeftShoulder1  0.121725 -24.3129 9.10152
LeftArm  -65.4146 -56.6339 37.2
LeftForeArm  41.2193 -7.32624 -2.81277
LeftHand  -0.244104 0.0205437 5.32207
RightShoulder  -0.598441 11.9965 -14.0219
RightArm  -70.1318 58.8874 -24.3619
RightForeArm  21.1147 4.49669 -0.821607
RightHand  -6.27209 16.8088 -32.2518
LeftUpLeg  -54.3042 16.978 -15.2274
LeftLeg  60.3609 6.89069 13.4354
LeftFoot  -24.6186 -0.565835 -6.27281
LeftToes  -1.10052e-010 1.3781e-010 -2.1811e-011
774
root  -32.4148 35.6706 1.91974 -149.962 -78.7031 177.462
RightUpLeg  -72.9257 -16.0976 20.4718
RightLeg  39.1067 -1.06086 -1.18284
RightFoot  1.65645 1.50537 -13.013
RightToes  2.91037e-010 0 -3.6325e-017
Spine  70.5476 -7.87981 6.28795
Spine1  16.1721 1.63155 -15.5501
HEad  -48.2745 1.60634 -0.145895
LeftShoulder1  -0.512407 -24.298 11.7315
LeftArm  -62.7649 -53.7615 36.867
LeftForeArm  38.0798 -6.92833 -2.78114
LeftHand  -0.244104 0.0205437 5.32207
RightShoulder  -0.607353 11.7715 -14.1623
RightArm  -73.6562 58.6722 -26.5563
RightForeArm  21.9868 5.97978 -1.22324
RightHand  -5.55208 15.3279 -30.6742
LeftUpLeg  -55.8501 17.5208 -13.7082
LeftLeg  64.8134 5.4222 13.1018
LeftFoot  -19.1567 -0.481327 -8.56918
LeftToes  -1.10052e-010 1.3781e-010 -2.1811e-011
775
root  -33.553 35.7855 1.57752 -154.619 -79.2778 -176.698
RightUpLeg  -72.8017 -16.3398 21.9124
RightLeg  40.6598 -1.34149 -1.52438
RightFoot  -0.793832 1.12669 -12.2533
RightToes  2.91037e-010 0 -3.6325e-017
Spine  70.4658 -7.69798 7.18625
Spine1  14.4837 1.61506 -15.1351
HEad  -47.38 1.38839 0.883096
LeftShoulder1  -0.974042 -22.78 13.8094
LeftArm  -63.9194 -54.5266 35.8713
LeftForeArm  38.3263 -5.78862 -2.12906
LeftHand  -0.244104 0.0205437 5.32207
RightShoulder  -0.455443 10.9983 -13.2056
RightArm  -76.0573 59.1633 -28.416
RightForeArm  23.689 7.51794 -1.19466
RightHand  -4.57061 13.1117 -28.4398
LeftUpLeg  -59.9121 18.7628 -12.3006
LeftLeg  69.9654 4.194 13.4651
LeftFoot  -8.36455 0.143198 -5.66116
LeftToes  -1.10052e-010 1.3781e-010 -2.1811e-011
776
root  -34.601 35.8765 1.22144 -157.199 -79.6301 -172.847
RightUpLeg  -72.7814 -15.982 22.7782
RightLeg  41.9679 -1.34744 -1.61411
RightFoot  -2.43763 1.05716 -13.7156
RightToes  2.91037e-010 0 -3.6325e-017
Spine  70.989 -6.48944 7.95319
Spine1  11.719 1.64814 -13.0169
HEad  -45.7264 -0.0052146 1.51874
LeftShoulder1  -0.688924 -21.7968 12.7091
LeftArm  -68.147 -57.4527 36.7634
LeftForeArm  41.4581 -5.05784 -1.52165
LeftHand  -0.244104 0.0205437 5.32207
RightShoulder  -0.318197 9.97058 -12.324
RightArm  -75.5678 59.661 -29.6935
RightForeArm  24.2512 7.68212 -0.645057
RightHand  -4.05309 11.7722 -27.2555
LeftUpLeg  -64.6217 19.811 -11.6324
LeftLeg  74.2504 3.01669 13.1551
LeftFoot  1.46974 -0.0232964 0.319372
LeftToes  -1.10052e-010 1.3781e-010 -2.1811e-011
777
root  -35.6008 36.044 0.892869 -153.197 -80.0897 -175.822
RightUpLeg  -72.5073 -15.4795 21.2125
RightLeg  43.5184 -2.52577 -2.88783
RightFoot  -4.50435 0.793071 -13.621
RightToes  2.91037e-010 0 -3.6325e-017
Spine  71.1201 -6.05393 7.79348
Spine1  10.4341 1.32567 -12.3224
HEad  -45.3174 -0.7269 2.08863
LeftShoulder1  -0.673821 -20.0078 12.883
LeftArm  -72.4823 -59.5233 38.5339
LeftForeArm  43.277 -4.98875 -0.999006
LeftHand  -0.244104 0.0205437 5.32207
RightShoulder  -0.267513 8.53276 -12.154
RightArm  -76.5087 60.14 -32.2034
RightForeArm  23.6875 6.43758 -0.456112
RightHand  -4.00123 11.6435 -27.1075
LeftUpLeg  -68.3439 19.856 -12.1634
LeftLeg  76.285 2.23485 11.9029
LeftFoot  3.84271 -0.572913 4.27197
LeftToes  -1.10052e-010 1.3781e-010 -2.1811e-011
